<svg width="40" height="13" viewBox="0 0 56 23" fill="none" xmlns="http://www.w3.org/2000/svg">
<g clip-path="url(#clip0)">
<path d="M15.2661 19.4121C16.8403 19.4121 18.1408 18.5223 18.6884 17.4272V19.2068H21.6315V3.66968H18.6884V10.1035C18.0724 9.00841 17.0457 8.25551 15.3345 8.25551C12.6652 8.25551 10.6118 10.3089 10.6118 13.7996V13.9365C10.6118 17.5641 12.6652 19.4121 15.2661 19.4121ZM16.1559 17.085C14.7185 17.085 13.6919 16.0583 13.6919 13.9365V13.7996C13.6919 11.6778 14.5816 10.5827 16.2928 10.5827C17.9355 10.5827 18.8253 11.6778 18.8253 13.7996V13.9365C18.7568 16.0583 17.6617 17.085 16.1559 17.085Z" fill="#131212"/>
<path d="M26.491 19.4122C28.1337 19.4122 29.092 18.7277 29.708 17.9064V19.2069H32.5827V12.2254C32.5827 9.35074 30.7346 8.25562 28.1337 8.25562C25.5328 8.25562 23.5479 9.35074 23.3425 11.8832H26.1488C26.2857 10.9934 26.8333 10.3774 27.9968 10.3774C29.3657 10.3774 29.708 11.0619 29.708 12.3623V12.773H28.4759C25.1906 12.773 22.9319 13.7312 22.9319 16.1953C22.8634 18.454 24.5061 19.4122 26.491 19.4122ZM27.3124 17.3588C26.2173 17.3588 25.7381 16.8797 25.7381 16.0584C25.7381 14.8948 26.7648 14.5526 28.4759 14.5526H29.6395V15.4424C29.6395 16.6744 28.6128 17.3588 27.3124 17.3588Z" fill="#131212"/>
<path d="M34.4309 19.2068H37.374V8.52937H34.4309V19.2068ZM35.9367 7.09202C36.8949 7.09202 37.6478 6.40756 37.6478 5.44933C37.6478 4.55954 36.8949 3.80664 35.9367 3.80664C34.9784 3.80664 34.294 4.49109 34.294 5.44933C34.2256 6.33912 34.9784 7.09202 35.9367 7.09202Z" fill="#131212"/>
<path d="M39.4957 19.2068H42.4389V3.66968H39.4957V19.2068Z" fill="#131212"/>
<path d="M48.8042 22.8344L54.5536 8.5293H51.7474L49.3518 14.9632L46.7509 8.5293H43.5339L47.846 18.1801L45.9295 22.8344H48.8042Z" fill="#131212"/>
<path d="M0.481934 22.8351H3.35664L12.1861 0.932617H9.37982L0.481934 22.8351Z" fill="#131212"/>
</g>
<defs>
<clipPath id="clip0">
<rect x="0.481934" y="0.932617" width="54.7562" height="21.9025" fill="white"/>
</clipPath>
</defs>
</svg>
