<svg width="20" height="12" viewBox="0 0 60 21" fill="none" xmlns="http://www.w3.org/2000/svg">
<g clip-path="url(#clip0_2892_39162)">
<path d="M48.1983 20.0621C48.1125 20.0621 48.043 19.9925 48.043 19.9067V1.20256C48.043 1.12892 48.0947 1.06542 48.1668 1.05051L51.4335 0.375098C51.5299 0.355177 51.6203 0.428757 51.6203 0.527148V19.9067C51.6203 19.9925 51.5507 20.0621 51.465 20.0621H48.1983Z" fill="#131212"/>
<path d="M7.16489 20.4576C5.86067 20.4576 4.6962 20.1409 3.67145 19.5074C2.64671 18.8739 1.83624 18.0075 1.24002 16.9083C0.64381 15.809 0.345703 14.5607 0.345703 13.1633C0.345703 11.766 0.64381 10.527 1.24002 9.44634C1.83624 8.34706 2.64671 7.49 3.67145 6.87515C4.6962 6.24168 5.86067 5.92494 7.16489 5.92494C8.20826 5.92494 9.12123 6.12057 9.90374 6.51183C10.5323 6.8261 11.0647 7.24253 11.5008 7.76112C11.5991 7.87794 11.8042 7.81151 11.8042 7.65885V0.866123C11.8042 0.792493 11.8559 0.728986 11.928 0.714078L15.1948 0.038672C15.2911 0.0187509 15.3815 0.0923308 15.3815 0.190722V19.967C15.3815 20.0528 15.3119 20.1223 15.2262 20.1223H12.323C12.2489 20.1223 12.1851 20.0698 12.1707 19.997L11.8729 18.4868C11.8467 18.3538 11.6724 18.3143 11.5856 18.4184C11.1688 18.9184 10.6453 19.3653 10.0155 19.7589C9.28892 20.2247 8.33868 20.4576 7.16489 20.4576ZM7.91947 17.3275C9.0746 17.3275 10.0155 16.9456 10.7422 16.1817C11.4874 15.3992 11.86 14.4023 11.86 13.1913C11.86 11.9802 11.4874 10.9928 10.7422 10.2289C10.0155 9.44634 9.0746 9.05505 7.91947 9.05505C6.78294 9.05505 5.84204 9.43696 5.09678 10.2009C4.3515 10.9648 3.97888 11.9523 3.97888 13.1633C3.97888 14.3744 4.3515 15.3712 5.09678 16.1537C5.84204 16.9362 6.78294 17.3275 7.91947 17.3275Z" fill="#131212"/>
<path d="M24.1024 20.4599C22.705 20.4599 21.466 20.1618 20.3854 19.5656C19.3047 18.9694 18.457 18.131 17.8422 17.0503C17.2273 15.9697 16.9199 14.7214 16.9199 13.3054C16.9199 11.8707 17.218 10.5945 17.8142 9.47659C18.429 8.35867 19.2674 7.4923 20.3295 6.87746C21.4101 6.24398 22.6771 5.92725 24.1303 5.92725C25.4904 5.92725 26.6922 6.22535 27.7356 6.82157C28.7789 7.41778 29.5894 8.23757 30.167 9.28094C30.7632 10.3056 31.0613 11.4516 31.0613 12.7185C31.0613 12.9234 31.052 13.1377 31.0334 13.3612C31.0334 13.5404 31.0274 13.7254 31.0155 13.9166C31.0103 13.9975 30.9427 14.06 30.8617 14.06H20.6355C20.5456 14.06 20.4742 14.1363 20.4832 14.2259C20.5831 15.2277 20.951 16.0202 21.5871 16.6032C22.2765 17.218 23.1056 17.5254 24.0744 17.5254C24.8011 17.5254 25.4066 17.367 25.891 17.0503C26.3651 16.7343 26.7234 16.3355 26.9658 15.854C26.9929 15.8 27.0476 15.7648 27.108 15.7648H30.4338C30.5377 15.7648 30.6123 15.8648 30.5795 15.9634C30.3136 16.7619 29.8966 17.4969 29.3285 18.1682C28.7324 18.8762 27.987 19.4352 27.0928 19.8451C26.2171 20.255 25.2203 20.4599 24.1024 20.4599ZM24.1303 8.8338C23.2547 8.8338 22.4814 9.08529 21.8107 9.58835C21.1812 10.043 20.7651 10.7272 20.5623 11.6412C20.5412 11.736 20.6146 11.8242 20.7117 11.8242H27.2631C27.3525 11.8242 27.4238 11.7487 27.4148 11.6597C27.3304 10.8235 26.9994 10.1517 26.422 9.64427C25.8072 9.10396 25.0433 8.8338 24.1303 8.8338Z" fill="#131212"/>
<path d="M39.6668 20.4599C38.2694 20.4599 37.0305 20.1618 35.9499 19.5656C34.8692 18.9694 34.0214 18.131 33.4066 17.0503C32.7918 15.9697 32.4844 14.7214 32.4844 13.3054C32.4844 11.8707 32.7824 10.5945 33.3786 9.47659C33.9935 8.35867 34.8319 7.4923 35.8939 6.87746C36.9746 6.24398 38.2415 5.92725 39.6948 5.92725C41.0549 5.92725 42.2566 6.22535 43.3 6.82157C44.3434 7.41778 45.1539 8.23757 45.7314 9.28094C46.3277 10.3056 46.6258 11.4516 46.6258 12.7185C46.6258 12.9234 46.6165 13.1377 46.5978 13.3612C46.5978 13.5404 46.5918 13.7254 46.5799 13.9166C46.5748 13.9975 46.5072 14.06 46.4261 14.06H36.2C36.11 14.06 36.0387 14.1363 36.0476 14.2259C36.1476 15.2277 36.5155 16.0202 37.1515 16.6032C37.841 17.218 38.67 17.5254 39.6389 17.5254C40.3655 17.5254 40.9711 17.367 41.4555 17.0503C41.9295 16.7343 42.2878 16.3355 42.5302 15.854C42.5574 15.8 42.612 15.7648 42.6725 15.7648H45.9983C46.1022 15.7648 46.1768 15.8648 46.1439 15.9634C45.8781 16.7619 45.4611 17.4969 44.893 18.1682C44.2968 18.8762 43.5515 19.4352 42.6572 19.8451C41.7815 20.255 40.7847 20.4599 39.6668 20.4599ZM39.6948 8.8338C38.8191 8.8338 38.0459 9.08529 37.3752 9.58835C36.7458 10.043 36.3296 10.7272 36.1268 11.6412C36.1057 11.736 36.1791 11.8242 36.2762 11.8242H42.8276C42.917 11.8242 42.9883 11.7487 42.9793 11.6597C42.8948 10.8235 42.5639 10.1517 41.9865 9.64427C41.3717 9.10396 40.6077 8.8338 39.6948 8.8338Z" fill="#131212"/>
<path d="M56.3088 20.0661C57.6389 20.0661 58.7172 18.9878 58.7172 17.6577C58.7172 16.3275 57.6389 15.2493 56.3088 15.2493C54.9787 15.2493 53.9004 16.3275 53.9004 17.6577C53.9004 18.9878 54.9787 20.0661 56.3088 20.0661Z" fill="#131212"/>
</g>
<defs>
<clipPath id="clip0_2892_39162">
<rect width="58.8223" height="20.4599" fill="white" transform="translate(0.345703)"/>
</clipPath>
</defs>
</svg>
