<svg width="88" height="26" viewBox="0 0 88 26" fill="none" xmlns="http://www.w3.org/2000/svg">
<g clip-path="url(#clip0_2892_39284)">
<path d="M15.779 4.30566H1.21484V18.5194L4.3459 21.5751H18.9101V7.36138L15.779 4.30566ZM16.2534 15.3711C16.2534 16.3433 15.8739 17.2693 15.1623 17.9174C14.4507 18.6119 13.5493 18.9824 12.5531 18.9824H8.66297V15.3711H12.5531V11.1116H16.2534V15.3711Z" fill="#131212"/>
<path d="M33.5207 18.751C33.5207 18.8435 33.4733 18.8899 33.4258 18.9362C33.3784 18.9824 33.2836 19.0288 33.236 19.0288H29.2036C29.1088 19.0288 29.0614 18.9824 29.0138 18.9362C28.9664 18.8899 28.919 18.7972 28.919 18.751V17.1768H26.2148V19.2603L28.6343 21.6678H33.7105L36.1774 19.2603V7.4541H33.4733V18.751H33.5207Z" fill="#131212"/>
<path d="M39.8789 10.0467H42.6305V18.9824H39.8789V21.6213H48.0387V18.9824H45.3345V10.0467H48.0861V7.40771H39.8789V10.0467Z" fill="#131212"/>
<path d="M50.9336 10.0467H53.9223V21.6213H56.6264V10.0467H59.6151V7.40771H50.981V10.0467H50.9336Z" fill="#131212"/>
<path d="M64.5475 7.4541L62.0806 9.86163V12.3155L69.339 16.4824V18.7972C69.339 18.8899 69.2915 18.9362 69.2441 18.9824C69.1966 19.0288 69.1018 19.0751 69.0544 19.0751H65.0219C64.927 19.0751 64.8796 19.0288 64.8322 18.9824C64.7847 18.9362 64.7373 18.8435 64.7373 18.7972V17.2231H62.0332V19.3065L64.5001 21.7141H69.5762L72.0431 19.3065V15.5563L64.7373 11.3895V10.3709C64.7373 10.2783 64.7847 10.232 64.8322 10.1857C64.8796 10.1394 64.9744 10.0931 65.0219 10.0931H69.0544C69.1492 10.0931 69.1966 10.1394 69.2441 10.1857C69.2915 10.232 69.339 10.3246 69.339 10.3709V11.945H72.0431V9.86163L69.5762 7.4541H64.5475Z" fill="#131212"/>
<path d="M84.614 7.4541V18.751C84.614 18.8435 84.5666 18.8899 84.5192 18.9362C84.4717 18.9824 84.3769 19.0288 84.3293 19.0288H78.6365C78.5891 19.0288 78.5417 19.0288 78.5417 19.0288C78.4942 19.0288 78.4942 18.9824 78.4468 18.9824C78.3994 18.9362 78.3994 18.9362 78.3994 18.8899C78.3994 18.8435 78.3994 18.7972 78.3994 18.7972V7.4541H75.6953V19.2603L78.1621 21.6678H84.8987L87.3656 19.2603V7.4541H84.614Z" fill="#131212"/>
</g>
<defs>
<clipPath id="clip0_2892_39284">
<rect width="86.9548" height="25.5749" fill="white" transform="translate(0.457031 0.264893)"/>
</clipPath>
</defs>
</svg>
