<svg width="90" height="25" viewBox="0 0 90 25" fill="none" xmlns="http://www.w3.org/2000/svg">
<g clip-path="url(#clip0_2892_39168)">
<path d="M5.03989 2.68598C10.4959 -1.38896 18.1684 -0.186934 22.3456 5.29463C23.1555 6.35172 22.985 7.92884 21.8511 8.63642C21.3234 8.98338 20.6847 9.11983 20.0613 9.01881C19.4379 8.9178 18.875 8.58667 18.4838 8.09082C17.5162 6.8081 16.1714 5.8603 14.6381 5.38026C13.1047 4.90022 11.4596 4.91201 9.93323 5.41398C8.41667 5.9142 7.10095 6.88843 6.18003 8.19307C5.25912 9.4977 4.78173 11.0637 4.81824 12.6602C4.83206 14.2626 5.35005 15.82 6.29877 17.1115C7.24748 18.403 8.57874 19.363 10.1037 19.8553C11.6135 20.3547 13.2434 20.3586 14.7556 19.8663C16.2677 19.374 17.583 18.4113 18.5094 17.1188C19.3619 15.9253 20.615 15.7036 21.8085 16.3941C23.002 17.0761 23.1043 18.8067 22.3626 19.8894C21.2572 21.4611 19.7906 22.7445 18.0861 23.6316C16.3816 24.5187 14.489 24.9837 12.5674 24.9873C8.60333 25.0044 4.89497 23.1971 2.4824 20.0343C-1.70337 14.5528 -0.424619 6.7524 5.03137 2.68598H5.03989ZM21.2118 10.2391C21.5997 10.0583 22.028 9.9813 22.4547 10.0157C22.8813 10.05 23.2917 10.1946 23.6458 10.4352C23.9998 10.6758 24.2853 11.0042 24.4743 11.3882C24.6633 11.7723 24.7494 12.1988 24.7241 12.6261C24.6985 13.052 24.5594 13.4633 24.321 13.8171C24.0826 14.1709 23.7537 14.4544 23.3686 14.638C22.9806 14.8188 22.5523 14.8958 22.1257 14.8614C21.699 14.8271 21.2886 14.6825 20.9346 14.4419C20.5806 14.2013 20.2951 13.8729 20.1061 13.4889C19.9171 13.1048 19.831 12.6783 19.8563 12.251C19.8818 11.8251 20.021 11.4139 20.2594 11.06C20.4978 10.7062 20.8267 10.4227 21.2118 10.2391Z" fill="#131212"/>
<path d="M51.2972 18.6619H48.6545L44.8012 13.5469L44.7671 15.1923V18.6619H42.687V2.82251H44.7671V12.5836L48.2964 7.82667H50.9647V7.91192L47.1541 12.9928L51.2972 18.5767V18.6619ZM56.7532 18.8409C55.9256 18.8683 55.1194 18.5751 54.5026 18.0225C54.1989 17.7288 53.9606 17.3741 53.8034 16.9819C53.6462 16.5896 53.5736 16.1686 53.5904 15.7464V9.68512H51.6297V7.82667H53.5904V4.8685H55.6705V7.81815H58.3985V9.67659H55.6705V15.0729C55.6705 15.7975 55.8155 16.2834 56.0968 16.5477C56.3866 16.8035 56.7106 16.9313 57.0771 16.9313C57.3976 16.9361 57.7151 16.8691 58.0064 16.7353L58.6628 18.5426C58.1172 18.7386 57.4863 18.8324 56.7617 18.8324L56.7532 18.8409ZM75.7383 18.8409C74.9078 18.8705 74.0981 18.5772 73.4792 18.0225C73.1755 17.7288 72.9372 17.3741 72.78 16.9819C72.6228 16.5896 72.5502 16.1686 72.567 15.7464V9.68512H70.6148V7.82667H72.567V4.8685H74.6471V7.81815H77.3751V9.67659H74.6471V15.0729C74.6471 15.7975 74.792 16.2834 75.0734 16.5477C75.3632 16.8035 75.6957 16.9313 76.0537 16.9313C76.3771 16.9374 76.6977 16.8704 76.9915 16.7353L77.6394 18.5426C77.0938 18.7386 76.4629 18.8324 75.7383 18.8324V18.8409ZM83.6239 18.9518C82.8593 18.9608 82.1003 18.8191 81.3905 18.5348C80.6806 18.2504 80.0337 17.8291 79.4867 17.2947C78.9396 16.7604 78.5032 16.1235 78.2024 15.4205C77.9015 14.7175 77.7421 13.9621 77.7332 13.1974C77.7332 10.0261 80.3759 7.45157 83.6239 7.45157C85.1667 7.43337 86.6537 8.02826 87.7582 9.1056C88.8627 10.1829 89.4945 11.6546 89.5147 13.1974C89.5147 16.3772 86.8719 18.9518 83.6239 18.9518ZM83.6239 16.9058C84.1172 16.9125 84.607 16.8219 85.0653 16.6391C85.5235 16.4563 85.9412 16.1849 86.2943 15.8404C86.6475 15.4959 86.9293 15.0852 87.1235 14.6316C87.3177 14.1781 87.4205 13.6907 87.4261 13.1974C87.4261 11.1514 85.7211 9.48904 83.6239 9.48904C83.1306 9.48228 82.6408 9.57291 82.1826 9.75572C81.7244 9.93853 81.3067 10.2099 80.9535 10.5544C80.6003 10.8989 80.3186 11.3097 80.1244 11.7632C79.9302 12.2167 79.8273 12.7041 79.8218 13.1974C79.8218 15.2434 81.5268 16.9058 83.6239 16.9058ZM35.7306 18.9518C34.966 18.9608 34.207 18.8191 33.4972 18.5348C32.7873 18.2504 32.1404 17.8291 31.5933 17.2947C31.0463 16.7604 30.6099 16.1235 30.3091 15.4205C30.0082 14.7175 29.8487 13.9621 29.8398 13.1974C29.8398 10.0261 32.4826 7.45157 35.7306 7.45157C37.2734 7.43337 38.7604 8.02826 39.8649 9.1056C40.9694 10.1829 41.6011 11.6546 41.6214 13.1974C41.6214 16.3772 38.9786 18.9518 35.7306 18.9518ZM35.7306 16.9058C36.2239 16.9125 36.7137 16.8219 37.1719 16.6391C37.6302 16.4563 38.0478 16.1849 38.401 15.8404C38.7542 15.4959 39.036 15.0852 39.2302 14.6316C39.4244 14.1781 39.5272 13.6907 39.5327 13.1974C39.5327 11.1514 37.8277 9.48904 35.7306 9.48904C35.2373 9.48228 34.7475 9.57291 34.2893 9.75572C33.831 9.93853 33.4134 10.2099 33.0602 10.5544C32.707 10.8989 32.4252 11.3097 32.231 11.7632C32.0368 12.2167 31.934 12.7041 31.9285 13.1974C31.9285 15.2434 33.6335 16.9058 35.7306 16.9058ZM64.7496 19.02C63.9793 19.0458 63.2118 18.9148 62.4938 18.6349C61.7757 18.355 61.122 17.932 60.5724 17.3917C60.0268 16.8342 59.5991 16.1724 59.315 15.4459C59.0308 14.7194 58.896 13.9431 58.9185 13.1633C58.9185 11.518 59.4471 10.154 60.5127 9.05427C61.0425 8.51295 61.6791 8.08786 62.3822 7.80606C63.0852 7.52426 63.8392 7.39192 64.5962 7.41747C66.3012 7.41747 67.5117 7.96307 68.6711 8.96902C69.8305 9.97497 70.5807 11.8675 70.4358 13.7856H61.1265C61.1248 14.232 61.2263 14.6728 61.423 15.0735C61.6196 15.4742 61.9062 15.8241 62.2603 16.0959C62.9656 16.7378 63.8899 17.0856 64.8434 17.0677C66.2159 17.0677 67.3668 16.3857 67.9465 15.1241H70.2141C69.8345 16.415 69.0022 17.5258 67.8698 18.2527C66.9491 18.7898 65.909 19.02 64.7581 19.02H64.7496ZM61.2203 11.9187H68.2619C68.0914 11.1855 67.6652 10.512 67.0002 10.0005C66.3267 9.48904 65.7385 9.23329 64.7496 9.23329C63.9227 9.23329 63.1128 9.52314 62.5246 10.0005C61.9279 10.4779 61.4164 11.1088 61.2203 11.9187Z" fill="#131212"/>
</g>
<defs>
<clipPath id="clip0_2892_39168">
<rect width="89.5123" height="24.7224" fill="white" transform="translate(0 0.264893)"/>
</clipPath>
</defs>
</svg>
