<svg width="111" height="27" viewBox="0 0 111 27" fill="none" xmlns="http://www.w3.org/2000/svg">
<g clip-path="url(#clip0_2892_39199)">
<path d="M13.1674 21.2691C14.1414 21.2691 15.0565 21.0716 15.9117 20.6754C16.7671 20.2796 17.5155 19.738 18.1571 19.0504C18.7983 18.3638 19.3033 17.5659 19.6715 16.6574C20.0401 15.7489 20.2246 14.7707 20.2246 13.7227C20.2246 12.6744 20.0401 11.6904 19.6715 10.7701C19.3033 9.85054 18.7983 9.0466 18.1571 8.35949C17.5155 7.6729 16.7671 7.13132 15.9117 6.73503C15.0565 6.33923 14.1414 6.14096 13.1674 6.14096C12.1935 6.14096 11.2784 6.33923 10.4232 6.73503C9.56785 7.13132 8.81886 7.6729 8.17779 8.35949C7.53617 9.0466 7.03154 9.85054 6.66299 10.7701C6.29445 11.6904 6.11079 12.6744 6.11079 13.7227C6.11079 14.7707 6.29445 15.7489 6.66299 16.6574C7.03154 17.5659 7.53617 18.3638 8.17779 19.0504C8.81886 19.738 9.56785 20.2796 10.4232 20.6754C11.2784 21.0716 12.1935 21.2691 13.1674 21.2691ZM13.1496 0.969971C14.865 0.969971 16.4845 1.30792 18.0093 1.9831C19.5332 2.65901 20.8613 3.57898 21.9932 4.74336C23.1242 5.90848 24.0174 7.25871 24.6729 8.79624C25.3276 10.3334 25.6552 11.9758 25.6552 13.7227C25.6552 15.4465 25.3276 17.0886 24.6729 18.6487C24.0174 20.2097 23.1242 21.5723 21.9932 22.7366C20.8613 23.9013 19.5332 24.8273 18.0093 25.5144C16.4845 26.201 14.865 26.5448 13.1496 26.5448C11.4345 26.5448 9.81471 26.201 8.2903 25.5144C6.76583 24.8273 5.44388 23.9013 4.32431 22.7366C3.2046 21.5723 2.31748 20.2097 1.66232 18.6487C1.00678 17.0886 0.679688 15.4465 0.679688 13.7227C0.679688 11.9758 1.00678 10.3334 1.66232 8.79624C2.31748 7.25871 3.2046 5.90848 4.32431 4.74336C5.44388 3.57898 6.76583 2.65901 8.2903 1.9831C9.81471 1.30792 11.4345 0.969971 13.1496 0.969971Z" fill="#131212"/>
<path d="M49.9881 13.3378C50.9887 13.9205 51.7506 14.6655 52.275 15.574C52.7988 16.4823 53.0608 17.5307 53.0608 18.7185C53.0608 19.8368 52.7869 20.879 52.2391 21.8455C51.6909 22.8124 50.9171 23.6684 49.9166 24.4135C49.0111 25.0894 47.9812 25.6072 46.826 25.9684C45.6705 26.3293 44.4501 26.5211 43.1634 26.5446C41.8772 26.5446 40.6504 26.3702 39.4835 26.0204C38.3159 25.6712 37.2801 25.147 36.375 24.4484C35.0173 23.447 34.0882 22.2359 33.5879 20.8147L38.5903 18.5441C38.5903 18.7769 38.6731 19.0677 38.8403 19.4175C39.0068 19.7668 39.2689 20.1046 39.6262 20.4303C39.9838 20.7572 40.4483 21.0365 41.0197 21.269C41.5915 21.5022 42.2938 21.6181 43.128 21.6181C43.7946 21.6181 44.3842 21.5372 44.8968 21.3738C45.4084 21.2112 45.8371 21.007 46.1831 20.7623C46.528 20.5178 46.7902 20.2386 46.969 19.9238C47.1478 19.6094 47.2368 19.2896 47.2368 18.9632C47.2368 18.5909 47.112 18.2413 46.8617 17.9149C46.6117 17.5891 46.224 17.3328 45.7007 17.1465C44.7476 16.8205 43.7409 16.5468 42.6815 16.3254C41.6212 16.1041 40.5909 15.8247 39.5904 15.4869C38.5903 15.1492 37.6612 14.7005 36.8037 14.1418C35.9463 13.5827 35.2672 12.8026 34.7669 11.8007C34.3141 10.9158 34.0882 9.97231 34.0882 8.97052C34.0882 7.85266 34.3561 6.76938 34.892 5.72154C35.4281 4.67321 36.1604 3.7882 37.0895 3.06613C37.9705 2.39083 38.9593 1.87264 40.055 1.51143C41.1506 1.15033 42.306 0.969727 43.5211 0.969727C44.7358 0.969727 45.8969 1.14437 47.0048 1.49389C48.1122 1.84317 49.1066 2.35589 49.9881 3.03118C50.8457 3.66033 51.5247 4.39383 52.025 5.23232L47.9517 7.95762C47.4513 7.28209 46.826 6.74088 46.0757 6.33265C45.3255 5.92577 44.4855 5.72154 43.5569 5.72154C42.2701 5.72154 41.2753 6.00091 40.573 6.56002C39.8704 7.11914 39.5193 7.85266 39.5193 8.76115C39.5193 9.18037 39.7157 9.55315 40.1086 9.87901C40.5015 10.2057 41.0136 10.4965 41.6452 10.7524C42.2759 11.0092 42.9851 11.2361 43.771 11.434C44.557 11.6319 45.3369 11.8301 46.1115 12.0277C46.8853 12.226 47.6176 12.4298 48.3088 12.6393C48.9993 12.849 49.5594 13.0819 49.9881 13.3378Z" fill="#131212"/>
<path d="M77.357 13.3378C78.3581 13.9205 79.1196 14.6655 79.6441 15.574C80.1679 16.4823 80.4302 17.5307 80.4302 18.7185C80.4302 19.8368 80.1563 20.879 79.6085 21.8455C79.06 22.8124 78.2862 23.6684 77.2858 24.4135C76.3805 25.0894 75.3507 25.6072 74.1948 25.9684C73.0396 26.3293 71.8194 26.5211 70.5327 26.5446C69.246 26.5446 68.0195 26.3702 66.8527 26.0204C65.6851 25.6712 64.6491 25.147 63.7441 24.4484C62.3863 23.447 61.4573 22.2359 60.957 20.8147L65.9593 18.5441C65.9593 18.7769 66.0423 19.0677 66.2093 19.4175C66.3759 19.7668 66.6381 20.1046 66.9953 20.4303C67.3529 20.7572 67.8174 21.0365 68.3887 21.269C68.9606 21.5022 69.6631 21.6181 70.4971 21.6181C71.164 21.6181 71.7536 21.5372 72.2658 21.3738C72.7773 21.2112 73.206 21.007 73.5525 20.7623C73.8969 20.5178 74.1592 20.2386 74.3379 19.9238C74.5166 19.6094 74.6056 19.2896 74.6056 18.9632C74.6056 18.5909 74.481 18.2413 74.2311 17.9149C73.9811 17.5891 73.5929 17.3328 73.0697 17.1465C72.1165 16.8205 71.1099 16.5468 70.0506 16.3254C68.9902 16.1041 67.9601 15.8247 66.9596 15.4869C65.9593 15.1492 65.0302 14.7005 64.1729 14.1418C63.3153 13.5827 62.6362 12.8026 62.136 11.8007C61.6831 10.9158 61.4573 9.97231 61.4573 8.97052C61.4573 7.85266 61.7251 6.76938 62.2612 5.72154C62.7973 4.67321 63.5295 3.7882 64.4586 3.06613C65.3396 2.39083 66.3285 1.87264 67.4241 1.51143C68.5197 1.15033 69.6754 0.969727 70.8901 0.969727C72.1049 0.969727 73.2662 1.14437 74.3742 1.49389C75.4814 1.84317 76.4757 2.35589 77.357 3.03118C78.215 3.66033 78.8936 4.39383 79.3942 5.23232L75.3205 7.95762C74.8207 7.28209 74.1948 6.74088 73.445 6.33265C72.6945 5.92577 71.8543 5.72154 70.9257 5.72154C69.6391 5.72154 68.6444 6.00091 67.9422 6.56002C67.2396 7.11914 66.8884 7.85266 66.8884 8.76115C66.8884 9.18037 67.0847 9.55315 67.4776 9.87901C67.8706 10.2057 68.3826 10.4965 69.0143 10.7524C69.6452 11.0092 70.354 11.2361 71.1401 11.434C71.9262 11.6319 72.7061 11.8301 73.4806 12.0277C74.2544 12.226 74.9864 12.4298 75.678 12.6393C76.3682 12.849 76.9283 13.0819 77.357 13.3378Z" fill="#131212"/>
<path d="M100.545 21.2689C101.688 21.2689 102.807 21.0128 103.903 20.5002C104.998 19.9881 106.106 19.1262 107.226 17.9149L110.728 21.1644C109.322 22.9348 107.72 24.2734 105.922 25.182C104.123 26.0903 102.271 26.5446 100.366 26.5446C98.651 26.5446 97.0425 26.2008 95.5422 25.5142C94.0412 24.827 92.7374 23.9011 91.6295 22.7364C90.5222 21.5721 89.6526 20.2154 89.0212 18.6659C88.3899 17.1173 88.0742 15.4693 88.0742 13.7225C88.0742 11.9755 88.4022 10.3332 89.0568 8.796C89.7122 7.25847 90.5996 5.90823 91.7192 4.74311C92.8388 3.57873 94.1603 2.65876 95.6853 1.98286C97.2096 1.30768 98.829 0.969727 100.545 0.969727C102.141 0.969727 103.659 1.26116 105.1 1.84317C106.541 2.42566 107.953 3.3924 109.335 4.74311L106.19 8.48167C105.189 7.57328 104.243 6.96168 103.349 6.64735C102.456 6.33265 101.521 6.17567 100.545 6.17567C99.5679 6.17567 98.6448 6.37357 97.7759 6.76938C96.9055 7.16603 96.1496 7.70127 95.5066 8.37684C94.8629 9.05236 94.3569 9.8503 93.9878 10.7699C93.6187 11.6902 93.4338 12.6741 93.4338 13.7225C93.4338 14.7704 93.6187 15.7487 93.9878 16.6571C94.3569 17.5656 94.8629 18.3635 95.5066 19.0502C96.1496 19.7378 96.9055 20.2793 97.7759 20.6752C98.6448 21.0714 99.5679 21.2689 100.545 21.2689Z" fill="#131212"/>
</g>
<defs>
<clipPath id="clip0_2892_39199">
<rect width="109.972" height="25.5749" fill="white" transform="translate(0.679688 0.969727)"/>
</clipPath>
</defs>
</svg>
