<svg width="87" height="19" viewBox="0 0 87 19" fill="none" xmlns="http://www.w3.org/2000/svg">
<g clip-path="url(#clip0)">
<path d="M0.857544 18.0266H4.76095V12.2849H9.07288C12.9763 12.2849 15.3137 10.3332 15.3137 7.06527C15.3137 3.91078 12.8401 2.04984 9.11822 2.04984H0.857544V18.0266ZM4.76095 5.02279H8.75513C10.6388 5.02279 11.433 5.83979 11.433 7.13335C11.433 8.72195 10.4118 9.28931 8.75513 9.28931H4.76095V5.02279ZM27.5692 10.3332C27.5692 8.38154 26.843 5.97595 21.7594 5.97595C17.1071 5.97595 16.0859 8.31346 15.9952 9.76587H19.6942C19.8532 9.08506 20.2162 8.49501 21.8049 8.49501C23.5296 8.49501 23.9381 9.26661 23.9381 10.2198V10.5829H21.4871C18.0376 10.5829 15.337 11.4453 15.337 14.509C15.337 16.3926 16.6306 18.3443 19.8304 18.3443C22.0545 18.3443 23.3934 17.7088 24.0289 16.7104C24.0515 17.028 24.0742 17.7543 24.165 18.0266H27.6599C27.6373 17.777 27.5692 16.2564 27.5692 14.7359V10.3332ZM23.9381 13.102C23.9381 14.7813 22.9168 15.7118 20.8971 15.7118C19.5354 15.7118 18.9226 15.099 18.9226 14.3274C18.9226 13.397 19.6716 12.8977 21.5552 12.8977C22.8715 12.8977 23.6657 12.8977 23.9381 12.9204V13.102ZM29.4157 18.0266H33.1149V13.7374C33.1149 10.4014 34.9758 9.33469 37.6311 9.38009V5.99864C35.2028 5.95326 33.7731 7.11066 33.1149 8.65387C33.1149 8.01843 33.0695 6.72486 33.0015 6.29367H29.3931C29.4157 7.3603 29.4157 8.42693 29.4157 9.49356V18.0266ZM42.2355 1.11938H38.5363V18.0266H42.2355V14.4409L44.0737 12.8523L47.6594 18.0266H52.1302L46.6835 10.7872L51.6309 6.29367H47.251C45.7758 7.83688 43.3929 10.129 42.2355 11.3545V1.11938ZM63.9227 13.0565C63.9454 12.6934 63.9454 12.4665 63.9454 12.1714C63.9454 9.13044 62.1071 5.97595 57.5456 5.97595C53.2564 5.97595 51.0323 8.88081 51.0323 12.1714C51.0323 15.1671 52.7571 18.3443 57.5683 18.3443C61.3355 18.3443 63.083 16.5287 63.8092 14.4409H60.0874C59.6561 15.1671 58.998 15.5983 57.6136 15.5983C55.8436 15.5983 54.8223 14.4863 54.7315 13.0565H63.9227ZM54.7769 10.7872C54.8677 9.62976 55.5939 8.58579 57.5229 8.58579C59.6335 8.58579 60.1101 9.90207 60.1781 10.7872H54.7769ZM64.957 18.0266H68.6562V13.7374C68.6562 10.4014 70.5171 9.33469 73.1723 9.38009V5.99864C70.744 5.95326 69.3143 7.11066 68.6562 8.65387C68.6562 8.01843 68.6108 6.72486 68.5427 6.29367H64.9343C64.957 7.3603 64.957 8.42693 64.957 9.49356V18.0266ZM81.0341 7.42838V5.90787H81.7377C82.2369 5.90787 82.4185 6.04404 82.4185 6.52061C82.4185 6.74755 82.4185 7.26952 82.4639 7.42838H83.417C83.3944 7.20144 83.3944 6.77025 83.3944 6.5433C83.3944 6.04404 83.2809 5.61284 82.9177 5.52207C83.2582 5.40859 83.4851 5.04549 83.4851 4.5916C83.4851 3.86538 82.8724 3.45689 82.0327 3.45689H80.1036V7.42838H81.0341ZM81.0569 4.18311H81.8057C82.3731 4.18311 82.5319 4.38736 82.5319 4.68238C82.5319 5.06818 82.2369 5.18166 81.8285 5.18166H81.0569V4.18311ZM81.7603 1.48249C79.3774 1.48249 77.7208 3.13917 77.7208 5.52207C77.7208 7.90496 79.4455 9.56161 81.7603 9.56161C84.1205 9.56161 85.7545 7.90496 85.7545 5.52207C85.7545 3.29803 84.166 1.48249 81.7603 1.48249ZM81.7377 2.29949C83.644 2.29949 84.8241 3.63845 84.8241 5.54476C84.8241 7.40568 83.8028 8.74464 81.7603 8.74464C79.9221 8.74464 78.6286 7.40568 78.6286 5.52207C78.6286 3.7973 79.5363 2.29949 81.7377 2.29949Z" fill="#131212"/>
</g>
<defs>
<clipPath id="clip0">
<rect width="85.7143" height="18" fill="white" transform="translate(0.484009 0.883789)"/>
</clipPath>
</defs>
</svg>
