<svg width="92" height="22" viewBox="0 0 92 22" fill="none" xmlns="http://www.w3.org/2000/svg">
<g clip-path="url(#clip0_2892_39175)">
<path d="M22.1367 13.3789C22.2273 14.2845 23.0573 15.8239 25.4268 15.8239C27.4945 15.8239 28.4906 14.5109 28.4906 13.228C28.4906 12.0659 27.7057 11.1302 26.1512 10.7982L25.0344 10.5567C24.5968 10.4813 24.31 10.2398 24.31 9.84736C24.31 9.3946 24.7628 9.06257 25.3212 9.06257C26.2267 9.06257 26.5587 9.6512 26.6192 10.1191L28.4 9.71156C28.3095 8.86637 27.5549 7.4326 25.3061 7.4326C23.6006 7.4326 22.348 8.6098 22.348 10.0133C22.348 11.1151 23.0422 12.0357 24.5666 12.3678L25.6079 12.6093C26.2117 12.7451 26.4531 13.0319 26.4531 13.3789C26.4531 13.8015 26.121 14.1637 25.4118 14.1637C24.476 14.1637 24.0232 13.5903 23.9629 12.9563L22.1367 13.3789ZM35.3122 15.5825H37.3497C37.3195 15.3108 37.2743 14.7675 37.2743 14.1486V7.67408H35.1463V12.2621C35.1463 13.1828 34.603 13.8166 33.6521 13.8166C32.656 13.8166 32.2033 13.1073 32.2033 12.232V7.67408H30.0602V12.6696C30.0602 14.3902 31.1468 15.7786 33.0635 15.7786C33.8936 15.7786 34.8142 15.4617 35.2519 14.7222C35.2368 15.0542 35.267 15.4164 35.3122 15.5825ZM41.6812 18.6311V14.8127C42.0736 15.3409 42.8735 15.7786 43.9601 15.7786C46.1938 15.7786 47.6879 14.0128 47.6879 11.6131C47.6879 9.27389 46.3598 7.50807 44.0507 7.50807C42.8584 7.50807 41.983 8.03629 41.6208 8.65508V7.68917H39.5532V18.6311H41.6812ZM45.575 11.6282C45.575 13.047 44.7148 13.8619 43.613 13.8619C42.5263 13.8619 41.6359 13.0319 41.6359 11.6282C41.6359 10.2247 42.5112 9.40969 43.613 9.40969C44.6997 9.40969 45.575 10.2247 45.575 11.6282ZM48.8803 13.4243C48.8803 14.6618 49.9065 15.8088 51.5968 15.8088C52.774 15.8088 53.5287 15.2655 53.921 14.6316C53.921 14.9334 53.9513 15.3711 53.9965 15.5825H55.9585C55.9132 15.3108 55.8679 14.7524 55.8679 14.3298V10.4359C55.8679 8.85128 54.9322 7.4326 52.442 7.4326C50.3291 7.4326 49.182 8.79091 49.0613 10.0284L50.9478 10.4359C51.0083 9.74174 51.5214 9.15312 52.4571 9.15312C53.3626 9.15312 53.7852 9.62094 53.7852 10.1794C53.7852 10.451 53.6343 10.6774 53.1966 10.7378L51.2497 11.0246C49.9216 11.2207 48.8803 12.0055 48.8803 13.4243ZM52.0496 14.209C51.3553 14.209 51.0233 13.7562 51.0233 13.2884C51.0233 12.6847 51.461 12.3678 52.0043 12.2923L53.7852 12.0206V12.3678C53.7701 13.7864 52.94 14.209 52.0496 14.209ZM60.0787 15.5825V14.6165C60.5012 15.2957 61.3313 15.7786 62.418 15.7786C64.6667 15.7786 66.1458 13.9977 66.1458 11.5981C66.1458 9.2588 64.8176 7.46279 62.5085 7.46279C61.3313 7.46279 60.4711 7.97593 60.1239 8.53434V3.94629H58.0261V15.5674L60.0787 15.5825ZM64.0177 11.6131C64.0177 13.062 63.1575 13.8619 62.0558 13.8619C60.9842 13.8619 60.0787 13.047 60.0787 11.6131C60.0787 10.1643 60.9842 9.37951 62.0558 9.37951C63.1424 9.37951 64.0177 10.1643 64.0177 11.6131ZM67.3531 13.4243C67.3531 14.6618 68.3794 15.8088 70.0698 15.8088C71.247 15.8088 72.0015 15.2655 72.3939 14.6316C72.3939 14.9334 72.4241 15.3711 72.4695 15.5825H74.4314C74.3861 15.3108 74.3409 14.7524 74.3409 14.3298V10.4359C74.3409 8.85128 73.4052 7.4326 70.9149 7.4326C68.802 7.4326 67.655 8.79091 67.5343 10.0284L69.4208 10.4359C69.4811 9.74174 69.9943 9.15312 70.93 9.15312C71.8355 9.15312 72.2581 9.62094 72.2581 10.1794C72.2581 10.451 72.1072 10.6774 71.6696 10.7378L69.7226 11.0246C68.3945 11.2207 67.3531 12.0055 67.3531 13.4243ZM70.5074 14.209C69.8132 14.209 69.4812 13.7562 69.4812 13.2884C69.4812 12.6847 69.9189 12.3678 70.4622 12.2923L72.243 12.0206V12.3678C72.243 13.7864 71.413 14.209 70.5074 14.209ZM75.8049 13.3789C75.8954 14.2845 76.7255 15.8239 79.0949 15.8239C81.1626 15.8239 82.1587 14.5109 82.1587 13.228C82.1587 12.0659 81.3739 11.1302 79.8194 10.7982L78.7025 10.5567C78.2648 10.4813 77.9781 10.2398 77.9781 9.84736C77.9781 9.3946 78.4309 9.06257 78.9893 9.06257C79.8948 9.06257 80.2268 9.6512 80.2872 10.1191L82.0681 9.71156C81.9775 8.86637 81.2229 7.4326 78.9742 7.4326C77.2688 7.4326 76.0161 8.6098 76.0161 10.0133C76.0161 11.1151 76.7104 12.0357 78.2346 12.3678L79.2761 12.6093C79.8797 12.7451 80.1212 13.0319 80.1212 13.3789C80.1212 13.8015 79.7892 14.1637 79.0798 14.1637C78.1441 14.1637 77.6913 13.5903 77.631 12.9563L75.8049 13.3789ZM85.4035 10.7227C85.4487 9.99826 86.0672 9.16821 87.1695 9.16821C88.392 9.16821 88.9052 9.9379 88.935 10.7227H85.4035ZM89.1465 12.7904C88.8898 13.4997 88.3468 13.9977 87.3502 13.9977C86.294 13.9977 85.4035 13.2431 85.3582 12.2018H91.0023C91.0023 12.1716 91.033 11.8547 91.033 11.5377C91.033 9.0022 89.5693 7.44769 87.1388 7.44769C85.1168 7.44769 83.2604 9.09275 83.2604 11.6131C83.2604 14.2845 85.162 15.839 87.3349 15.839C89.282 15.839 90.5352 14.692 90.9273 13.3337L89.1465 12.7904Z" fill="#131212"/>
<path d="M1.32563 12.9413C0.857776 12.9413 0.480469 12.564 0.480469 12.0961C0.480469 11.915 0.540838 11.7339 0.646484 11.598L0.963422 11.1453L8.28317 1.25985C8.34354 1.18439 8.43409 1.12402 8.53974 1.12402C8.72085 1.12402 8.85664 1.25985 8.85664 1.44096V1.47115V12.9262L1.32563 12.9413Z" fill="#131212"/>
<path d="M16.4178 8.66992C16.8856 8.66992 17.2629 9.04723 17.2629 9.51507C17.2629 9.69623 17.2026 9.8773 17.097 10.0131L16.78 10.4659L9.46019 20.3513C9.39984 20.4268 9.3093 20.4871 9.20368 20.4871C9.02252 20.4871 8.88672 20.3513 8.88672 20.1702V20.14V8.66992H16.4178Z" fill="#131212"/>
<path d="M16.4178 8.66992C16.8856 8.66992 17.2629 9.04723 17.2629 9.51507C17.2629 9.69623 17.2026 9.8773 17.097 10.0131L16.78 10.4659L9.46019 20.3513C9.39984 20.4268 9.3093 20.4871 9.20368 20.4871C9.02252 20.4871 8.88672 20.3513 8.88672 20.1702V20.14V8.66992H16.4178Z" fill="#131212" fill-opacity="0.2"/>
</g>
<defs>
<clipPath id="clip0_2892_39175">
<rect width="91.2173" height="20.4599" fill="white" transform="translate(0.257812 0.674805)"/>
</clipPath>
</defs>
</svg>
