<svg width="129" height="19" viewBox="0 0 129 19" fill="none" xmlns="http://www.w3.org/2000/svg">
<g clip-path="url(#clip0_2892_39302)">
<path d="M10.9753 3.58176L13.77 0.779297L22.7752 9.80946L13.77 18.8396L10.9753 16.0371L15.2122 11.7885H0.435547V7.82518H15.207L10.9753 3.58176Z" fill="#131212"/>
<path fill-rule="evenodd" clip-rule="evenodd" d="M43.9982 9.80946C43.9982 14.7967 39.9185 18.8396 34.8858 18.8396C29.8532 18.8396 25.7734 14.7967 25.7734 9.80946C25.7734 4.82224 29.8532 0.779297 34.8858 0.779297C39.9185 0.779297 43.9982 4.82224 43.9982 9.80946ZM40.2006 9.80946C40.2006 12.6067 37.8915 15.0018 34.8858 15.0018C31.8802 15.0018 29.5711 12.6067 29.5711 9.80946C29.5711 7.01229 31.8802 4.61712 34.8858 4.61712C37.8915 4.61712 40.2006 7.01229 40.2006 9.80946Z" fill="#131212"/>
<path d="M51.7266 5.39615H53.3409V2.59399H55.9827V5.39615H58.247V7.52914H55.9827V12.2551C55.9827 12.7849 56.1015 13.1613 56.3391 13.3844C56.5767 13.6074 56.8982 13.719 57.3036 13.719C57.4993 13.719 57.667 13.705 57.8068 13.6772C57.9465 13.6492 58.0723 13.6214 58.1842 13.5935L58.4358 15.7683C58.1981 15.852 57.9186 15.9216 57.5971 15.9774C57.2896 16.0332 56.9821 16.061 56.6746 16.061C56.2273 16.061 55.801 16.0053 55.3957 15.8938C54.9903 15.7962 54.6339 15.6219 54.3264 15.3709C54.0189 15.12 53.7742 14.7854 53.5925 14.3672C53.4248 13.9351 53.3409 13.3983 53.3409 12.7571V7.52914H51.7266V5.39615Z" fill="#131212"/>
<path d="M67.3502 15.7684C67.2663 15.6569 67.1615 15.4687 67.0357 15.2038C66.9099 14.925 66.847 14.5625 66.847 14.1164C66.4836 14.7716 66.0014 15.2596 65.4003 15.5802C64.7993 15.9009 64.1214 16.0612 63.3666 16.0612C62.8494 16.0612 62.3742 15.9845 61.9409 15.8311C61.5216 15.6778 61.1582 15.4617 60.8506 15.1829C60.5432 14.9041 60.2985 14.5625 60.1168 14.1582C59.9491 13.7539 59.8652 13.3078 59.8652 12.8199C59.8652 12.2901 59.9631 11.8301 60.1588 11.4398C60.3684 11.0354 60.641 10.6939 60.9765 10.415C61.3259 10.1362 61.7243 9.91317 62.1715 9.7459C62.6188 9.57856 63.087 9.46006 63.5763 9.39039L66.7002 8.90943V8.5121C66.7002 8.01023 66.5395 7.62687 66.218 7.36194C65.9105 7.08311 65.4353 6.94373 64.7923 6.94373C64.1773 6.94373 63.7091 7.06221 63.3875 7.29921C63.0801 7.52226 62.9263 7.79414 62.9263 8.11478C62.9263 8.15659 62.9263 8.19146 62.9263 8.21932C62.9263 8.24724 62.9403 8.296 62.9682 8.36574L60.599 9.16033C60.4733 8.89547 60.4104 8.60275 60.4104 8.28204C60.4104 7.87777 60.5082 7.48746 60.7039 7.11104C60.8996 6.72068 61.1791 6.37912 61.5426 6.08636C61.9199 5.7936 62.3812 5.5566 62.9263 5.37537C63.4714 5.19413 64.0935 5.10352 64.7923 5.10352C66.26 5.10352 67.3851 5.41719 68.1679 6.04453C68.9506 6.65794 69.3419 7.59894 69.3419 8.86761V13.1963C69.3419 13.7958 69.3909 14.2837 69.4887 14.6601C69.6006 15.0365 69.7823 15.4059 70.0339 15.7684H67.3502ZM63.9956 13.9282C64.7644 13.9282 65.4073 13.6773 65.9245 13.1754C66.4416 12.6735 66.7002 11.9207 66.7002 10.9169V10.7287L64.1843 11.147C63.0242 11.3422 62.4441 11.851 62.4441 12.6735C62.4441 13.0917 62.5838 13.4054 62.8634 13.6145C63.157 13.8236 63.5343 13.9282 63.9956 13.9282Z" fill="#131212"/>
<path d="M71.873 1.13037H74.5149V15.7684H71.873V1.13037Z" fill="#131212"/>
<path d="M87.9316 10.5824C87.9316 11.4885 87.7714 12.2832 87.4496 12.9663C87.1286 13.6494 86.695 14.221 86.1498 14.681C85.6186 15.1411 85.0109 15.4896 84.3259 15.7266C83.6549 15.9496 82.9628 16.0612 82.2503 16.0612C81.5372 16.0612 80.8381 15.9496 80.1538 15.7266C79.4828 15.4896 78.8743 15.1411 78.3298 14.681C77.7986 14.221 77.3721 13.6494 77.0503 12.9663C76.7293 12.2832 76.5684 11.4885 76.5684 10.5824C76.5684 9.67616 76.7293 8.88151 77.0503 8.19841C77.3721 7.51531 77.7986 6.94373 78.3298 6.48368C78.8743 6.02363 79.4828 5.68207 80.1538 5.45901C80.8381 5.22201 81.5372 5.10352 82.2503 5.10352C82.9628 5.10352 83.6549 5.22201 84.3259 5.45901C85.0109 5.68207 85.6186 6.02363 86.1498 6.48368C86.695 6.94373 87.1286 7.51531 87.4496 8.19841C87.7714 8.88151 87.9316 9.67616 87.9316 10.5824ZM82.2503 13.5936C82.6417 13.5936 83.012 13.5309 83.3612 13.4054C83.7244 13.266 84.0462 13.0708 84.3259 12.8199C84.6055 12.555 84.8289 12.2343 84.9968 11.858C85.1648 11.4816 85.2484 11.0563 85.2484 10.5824C85.2484 10.1084 85.1648 9.68318 84.9968 9.30676C84.8289 8.93034 84.6055 8.61664 84.3259 8.36574C84.0462 8.10081 83.7244 7.90569 83.3612 7.78017C83.012 7.64076 82.6417 7.57109 82.2503 7.57109C81.859 7.57109 81.4817 7.64076 81.1177 7.78017C80.7685 7.90569 80.4538 8.10081 80.1741 8.36574C79.8952 8.61664 79.6711 8.93034 79.5039 9.30676C79.3359 9.68318 79.2516 10.1084 79.2516 10.5824C79.2516 11.0563 79.3359 11.4816 79.5039 11.858C79.6711 12.2343 79.8952 12.555 80.1741 12.8199C80.4538 13.0708 80.7685 13.266 81.1177 13.4054C81.4817 13.5309 81.859 13.5936 82.2503 13.5936Z" fill="#131212"/>
<path d="M88.8438 5.39626H90.3537V3.93245C90.3537 3.29116 90.4443 2.73351 90.6263 2.25952C90.8075 1.77159 91.0598 1.36729 91.3809 1.04665C91.7167 0.726005 92.1081 0.489008 92.5549 0.335656C93.0165 0.168363 93.5126 0.0847168 94.0437 0.0847168C94.2531 0.0847168 94.4702 0.105629 94.6937 0.147452C94.9171 0.175334 95.1412 0.231098 95.3647 0.314745L94.903 2.63593C94.7492 2.58017 94.6164 2.54531 94.5047 2.53137C94.407 2.51743 94.2953 2.51046 94.1695 2.51046C93.3868 2.51046 92.9955 2.96355 92.9955 3.86971V5.39626H95.26V7.52925H92.9955V15.7684H90.3537V7.52925H88.8438V5.39626ZM96.916 1.1303H99.5578V15.7684H96.916V1.1303Z" fill="#131212"/>
<path d="M112.973 10.5824C112.973 11.4885 112.812 12.2832 112.491 12.9663C112.169 13.6494 111.736 14.221 111.191 14.681C110.66 15.1411 110.051 15.4896 109.367 15.7266C108.696 15.9496 108.004 16.0612 107.291 16.0612C106.578 16.0612 105.879 15.9496 105.194 15.7266C104.523 15.4896 103.915 15.1411 103.37 14.681C102.839 14.221 102.412 13.6494 102.091 12.9663C101.77 12.2832 101.609 11.4885 101.609 10.5824C101.609 9.67616 101.77 8.88151 102.091 8.19841C102.412 7.51531 102.839 6.94373 103.37 6.48368C103.915 6.02363 104.523 5.68207 105.194 5.45901C105.879 5.22201 106.578 5.10352 107.291 5.10352C108.004 5.10352 108.696 5.22201 109.367 5.45901C110.051 5.68207 110.66 6.02363 111.191 6.48368C111.736 6.94373 112.169 7.51531 112.491 8.19841C112.812 8.88151 112.973 9.67616 112.973 10.5824ZM107.291 13.5936C107.682 13.5936 108.053 13.5309 108.402 13.4054C108.765 13.266 109.087 13.0708 109.367 12.8199C109.646 12.555 109.87 12.2343 110.037 11.858C110.205 11.4816 110.289 11.0563 110.289 10.5824C110.289 10.1084 110.205 9.68318 110.037 9.30676C109.87 8.93034 109.646 8.61664 109.367 8.36574C109.087 8.10081 108.765 7.90569 108.402 7.78017C108.053 7.64076 107.682 7.57109 107.291 7.57109C106.899 7.57109 106.522 7.64076 106.159 7.78017C105.81 7.90569 105.495 8.10081 105.215 8.36574C104.936 8.61664 104.712 8.93034 104.544 9.30676C104.376 9.68318 104.293 10.1084 104.293 10.5824C104.293 11.0563 104.376 11.4816 104.544 11.858C104.712 12.2343 104.936 12.555 105.215 12.8199C105.495 13.0708 105.81 13.266 106.159 13.4054C106.522 13.5309 106.899 13.5936 107.291 13.5936Z" fill="#131212"/>
<path d="M124.075 12.3389L125.752 5.39624H128.31L125.417 15.7684H122.858L120.951 8.63751L119.043 15.7684H116.485L113.592 5.39624H116.149L117.827 12.3389L119.693 5.39624H122.209L124.075 12.3389Z" fill="#131212"/>
</g>
<defs>
<clipPath id="clip0_2892_39302">
<rect width="127.875" height="18.7549" fill="white" transform="translate(0.435547 0.0847168)"/>
</clipPath>
</defs>
</svg>
