<svg width="131" height="31" viewBox="0 0 131 31" fill="none" xmlns="http://www.w3.org/2000/svg">
<g clip-path="url(#clip0_2892_39293)">
<path d="M52.6533 18.7332C52.6533 19.2503 52.504 19.6918 52.2098 20.045C51.9149 20.3988 51.5194 20.5707 51.0007 20.5707C50.4121 20.5707 49.9586 20.3858 49.6527 20.0216C49.3433 19.6535 49.1864 19.0721 49.1864 18.2939V14.1683H54.1328V11.9257H49.1864V7.58105L46.6435 9.24162V11.9257H44.332V14.1683H46.6435V18.4094C46.6435 19.8421 47.0321 20.9732 47.7988 21.7707C48.5656 22.5695 49.643 22.9746 51.0007 22.9746C51.8594 22.9746 52.6084 22.7841 53.2272 22.4082C53.8455 22.0325 54.3298 21.5163 54.6666 20.8741C55.0028 20.2333 55.173 19.513 55.173 18.7332H52.6533Z" fill="#131212"/>
<path d="M64.1456 19.5722C63.6768 19.9657 63.1858 20.2686 62.6875 20.4723C62.1911 20.6755 61.7036 20.7783 61.2391 20.7783C60.6897 20.7783 60.2591 20.6597 59.9595 20.4258C59.6618 20.1935 59.5169 19.8966 59.5169 19.5188C59.5169 19.0953 59.6798 18.7728 60.0149 18.533C60.3533 18.2899 60.8738 18.1668 61.5628 18.1668H64.7871V18.9444C64.5867 19.1722 64.3724 19.3817 64.1456 19.5722ZM65.0789 12.2929C64.3532 11.9112 63.4506 11.7175 62.3945 11.7175C61.4623 11.7175 60.6265 11.8834 59.911 12.2104C59.1926 12.5382 58.6063 13.0056 58.1688 13.5997C57.7308 14.1943 57.4613 14.8995 57.3677 15.6954L59.9086 15.7195C60.0115 15.1593 60.2836 14.7298 60.7173 14.4435C61.156 14.1532 61.7205 14.006 62.3945 14.006C63.1557 14.006 63.752 14.1972 64.166 14.5745C64.5777 14.9497 64.7871 15.4624 64.7871 16.0979V16.2249H61.4467C60.0175 16.2249 58.8888 16.5337 58.0924 17.143C57.2885 17.7576 56.8889 18.6038 56.9047 19.6592C56.9203 20.3505 57.1081 20.9527 57.4631 21.4496C57.8172 21.9453 58.3029 22.3278 58.907 22.5864C59.507 22.844 60.175 22.9744 60.8925 22.9744C61.6092 22.9744 62.297 22.8282 62.9366 22.5396C63.5733 22.2525 64.1251 21.8858 64.577 21.4493C64.6505 21.3784 64.7209 21.3069 64.7871 21.235V22.7664H67.3295V16.1904C67.3295 15.3172 67.1357 14.5374 66.7524 13.8731C66.3685 13.2079 65.8059 12.6762 65.0789 12.2929Z" fill="#131212"/>
<path d="M76.8183 11.7178C75.8831 11.7178 75.0172 11.959 74.2451 12.4349C73.6584 12.7963 73.162 13.3134 72.7618 13.9771V11.9257H70.2188V22.7667H72.7618V18.5945C72.7618 17.6084 72.9038 16.7713 73.183 16.1064C73.4611 15.4465 73.851 14.9455 74.3438 14.6167C74.8373 14.2882 75.4126 14.1217 76.0559 14.1217C76.8905 14.1217 77.5314 14.3616 77.9598 14.8351C78.3913 15.3104 78.6097 15.9922 78.6097 16.8609V22.7667H81.1522V16.2368C81.1522 14.7721 80.7472 13.6404 79.9487 12.8729C79.1507 12.1064 78.0976 11.7178 76.8183 11.7178Z" fill="#131212"/>
<path d="M91.2587 20.1541C90.7568 20.4459 90.1599 20.5938 89.4847 20.5938C88.8535 20.5938 88.2709 20.4606 87.7534 20.1981C87.2383 19.9367 86.8333 19.5544 86.5505 19.0623C86.2659 18.5692 86.1214 17.992 86.1214 17.3464C86.1214 16.6859 86.2659 16.1044 86.5499 15.6187C86.8333 15.1341 87.2383 14.756 87.7534 14.4946C88.2709 14.2319 88.8541 14.0986 89.4847 14.0986C90.1605 14.0986 90.7568 14.2467 91.2587 14.5385C91.7594 14.83 92.1535 15.2206 92.4309 15.6994C92.7077 16.1782 92.848 16.7169 92.848 17.3002V17.3926C92.848 17.9609 92.7077 18.4958 92.4309 18.982C92.1541 19.468 91.7594 19.8623 91.2587 20.1541ZM92.848 8.52356V13.4872C92.4424 12.972 91.9507 12.5637 91.3827 12.2697C90.6726 11.9035 89.8476 11.7178 88.9299 11.7178C87.8888 11.7178 86.9465 11.9507 86.1287 12.4099C85.3097 12.8701 84.6574 13.5299 84.1898 14.3714C83.7234 15.212 83.4863 16.213 83.4863 17.3464C83.4863 18.4641 83.7234 19.4572 84.1898 20.2978C84.6574 21.1396 85.3097 21.8033 86.1275 22.2705C86.9453 22.7375 87.8882 22.9747 88.9299 22.9747C89.8476 22.9747 90.6774 22.7809 91.3953 22.3989C91.9555 22.1005 92.4424 21.6929 92.848 21.1833V22.7666H95.391V6.86426L92.8847 8.49979L92.848 8.52356Z" fill="#131212"/>
<path d="M129.834 13.7603C129.481 13.0941 128.988 12.5814 128.369 12.2364C127.75 11.8925 127.033 11.7178 126.238 11.7178C125.209 11.7178 124.272 11.9943 123.453 12.5403C122.879 12.9232 122.415 13.4821 122.064 14.2085C121.816 13.56 121.442 13.0302 120.949 12.6261C120.213 12.0235 119.317 11.7178 118.286 11.7178C117.632 11.7178 117.008 11.8323 116.431 12.0586C115.85 12.2858 115.334 12.659 114.896 13.1675C114.738 13.3508 114.593 13.5559 114.46 13.7825V11.9257H111.918V22.7667H114.46V18.5945C114.46 17.6068 114.583 16.7685 114.826 16.1026C115.065 15.4436 115.413 14.943 115.86 14.6148C116.307 14.2875 116.858 14.1217 117.5 14.1217C118.242 14.1217 118.828 14.3613 119.242 14.8341C119.658 15.3098 119.869 15.9915 119.869 16.8609V22.7667H122.412V18.5945C122.412 17.6068 122.535 16.7685 122.777 16.1026C123.016 15.4433 123.365 14.9427 123.812 14.6148C124.258 14.2875 124.81 14.1217 125.452 14.1217C126.194 14.1217 126.78 14.3613 127.193 14.8341C127.609 15.3098 127.82 15.9915 127.82 16.8609V22.7667H130.363V16.2368C130.363 15.2576 130.185 14.4246 129.834 13.7603Z" fill="#131212"/>
<path d="M100.906 15.6044C101.175 15.0961 101.557 14.6904 102.043 14.3993C102.529 14.1078 103.102 13.96 103.747 13.96C104.391 13.96 104.949 14.0961 105.405 14.3647C105.859 14.6335 106.215 15.0003 106.461 15.4547C106.593 15.6993 106.69 15.9646 106.752 16.2481H100.647C100.712 16.0222 100.799 15.8073 100.906 15.6044ZM106.802 19.2519C106.685 19.4664 106.526 19.6806 106.323 19.8902C106.086 20.1351 105.764 20.3428 105.368 20.5076C104.972 20.6719 104.465 20.7554 103.862 20.7554C103.171 20.7554 102.567 20.6076 102.065 20.3158C101.565 20.0244 101.175 19.6155 100.906 19.1003C100.758 18.8177 100.651 18.5132 100.583 18.1901H109.445V17.4387C109.445 16.3826 109.204 15.4092 108.729 14.5452C108.254 13.6812 107.584 12.9865 106.735 12.4804C105.886 11.9744 104.88 11.7178 103.747 11.7178C102.674 11.7178 101.686 11.9621 100.806 12.4444C99.9273 12.927 99.2136 13.5973 98.6853 14.437C98.1557 15.2782 97.8867 16.2571 97.8867 17.3463C97.8867 18.466 98.1557 19.4605 98.6853 20.3016C99.2142 21.1425 99.9399 21.8052 100.843 22.272C101.744 22.7382 102.767 22.9746 103.885 22.9746C104.94 22.9746 105.861 22.8053 106.623 22.4707C107.386 22.1362 108.013 21.6777 108.49 21.108C108.951 20.5554 109.264 19.9304 109.425 19.2519H106.802Z" fill="#131212"/>
<path d="M13.1196 22.0797L0.382812 30.3931V8.31336L13.1196 0V22.0797Z" fill="#131212"/>
<path d="M33.686 22.0797L20.9492 30.3931V8.31336L33.686 0V22.0797Z" fill="#131212"/>
</g>
<defs>
<clipPath id="clip0_2892_39293">
<rect width="129.981" height="30.6899" fill="white" transform="translate(0.382812)"/>
</clipPath>
</defs>
</svg>
