<svg width="98" height="24" viewBox="0 0 98 24" fill="none" xmlns="http://www.w3.org/2000/svg">
<path d="M48.8964 6.53417C45.1846 6.53417 42.5083 8.96489 42.5083 12.611C42.5083 16.2571 45.5175 18.6878 49.2327 18.6878C51.4751 18.6878 53.4521 17.7965 54.6758 16.2942L52.1038 14.802C51.4247 15.5481 50.3925 15.9836 49.2327 15.9836C47.6221 15.9836 46.2538 15.1396 45.746 13.7892H55.1668C55.2406 13.4111 55.2845 13.0195 55.2845 12.6076C55.2845 8.96489 52.6116 6.53417 48.8964 6.53417ZM45.7191 11.4294C46.1394 10.0824 47.2893 9.23497 48.8964 9.23497C50.5068 9.23497 51.6567 10.0824 52.0737 11.4294H45.7191ZM44.9594 2.82057L35.6429 19.0254L26.3233 2.82057H29.8164L35.6397 12.9486L41.4628 2.82057H44.9594ZM13.4699 1.13257L25.8929 22.739H1.04688L13.4699 1.13257ZM68.8001 12.611C68.8001 14.6366 70.118 15.987 72.1622 15.987C73.5475 15.987 74.5864 15.3557 75.1209 14.326L77.703 15.8216C76.6338 17.6108 74.63 18.6878 72.1622 18.6878C68.447 18.6878 65.7743 16.2571 65.7743 12.611C65.7743 8.96489 68.4504 6.53417 72.1622 6.53417C74.63 6.53417 76.6305 7.61112 77.703 9.40039L75.1209 10.896C74.5864 9.86629 73.5475 9.23497 72.1622 9.23497C70.1215 9.23497 68.8001 10.5854 68.8001 12.611ZM96.5308 2.82057V18.3502H93.505V2.82057H96.5308ZM85.0996 6.53417C81.3878 6.53417 78.7117 8.96489 78.7117 12.611C78.7117 16.2571 81.7241 18.6878 85.4359 18.6878C87.6783 18.6878 89.6553 17.7965 90.879 16.2942L88.307 14.802C87.6279 15.5481 86.5957 15.9836 85.4359 15.9836C83.8253 15.9836 82.457 15.1396 81.9492 13.7892H91.37C91.4438 13.4111 91.4875 13.0195 91.4875 12.6076C91.4875 8.96489 88.8148 6.53417 85.0996 6.53417ZM81.9223 11.4294C82.3428 10.0824 83.4892 9.23497 85.0996 9.23497C86.71 9.23497 87.8599 10.0824 88.2769 11.4294H81.9223ZM64.7656 6.87177V10.1431C64.4295 10.0452 64.0729 9.97769 63.6897 9.97769C61.7363 9.97769 60.3276 11.3281 60.3276 13.3537V18.3502H57.3018V6.87177H60.3276V9.97769C60.3276 8.26268 62.3145 6.87177 64.7656 6.87177Z" fill="#131212"/>
</svg>
